<?xml version="1.0" encoding="utf-8" ?>
<svg xmlns="http://www.w3.org/2000/svg" xmlns:xlink="http://www.w3.org/1999/xlink" width="1580" height="1580">
	<path fill="white" transform="scale(1.6127 1.6127)" d="M636.744 299.295C640.774 299.348 646.114 299.21 649.312 302.104C651.123 303.743 651.567 306.152 651.85 308.472C652.582 314.472 652.145 320.778 652.097 326.816L652.097 353.999L652.13 455.531C652.103 467.903 651.003 485.57 652.59 497.267C654.535 511.604 666.589 528.457 673.65 541.257L715.25 616.926Q723.263 631.401 731.09 645.977C733.633 650.698 736.519 655.437 738.694 660.332C739.883 663.007 740.699 665.846 740.695 668.793C740.69 672.033 739.658 675.327 737.236 677.575C734.397 680.209 730.588 680.858 726.87 681.215C720.098 681.865 712.986 681.419 706.186 681.385L667.659 681.194L606.28 681.01C597.41 681.021 588.528 681.491 579.661 681.29C574.871 681.182 565.662 681.258 561.618 678.405C559.237 676.725 557.416 674.122 555.833 671.707C550.777 663.993 546.664 655.447 542.203 647.367L516.601 601.213C512.672 594.171 508.771 585.121 503.032 579.42C499.41 575.822 494.343 573.925 489.264 573.969C484.915 574.005 480.85 575.526 477.692 578.55C470.401 585.53 463.663 601.296 458.597 610.461Q446.999 631.107 435.833 651.99C431.598 660.089 427.426 670.807 420.827 677.189C418.916 679.038 417.239 680.03 414.609 680.483C404.051 682.298 392.643 680.959 381.955 680.895L317.495 680.676L272.352 680.691C264.461 680.753 256.155 681.909 248.351 680.615C245.25 680.101 242.391 678.721 240.576 676.073C238.147 672.529 239.372 667.469 240.702 663.685C242.761 657.828 246.029 652.311 248.969 646.857L261.214 624.188L300.84 550.578C307.775 537.778 315.539 525.382 321.612 512.128C324.092 506.715 326.01 501.567 326.71 495.636C327.594 488.14 327.332 480.546 327.318 473.011L327.281 442.509L327.299 342.284C327.267 330.332 325.077 316.875 327.55 305.147C328.168 302.219 330.136 301.122 332.522 299.637C340.466 299.246 348.451 299.422 356.403 299.456C372.835 299.528 389.487 298.823 404.728 306.027C411.765 309.354 418.086 315.145 422.815 321.265C429.882 330.414 435.023 341.395 440.581 351.522Q455.885 379.206 471.816 406.535C476.28 414.297 480.159 422.902 485.339 430.193C486.477 431.794 487.486 433.339 489.435 433.928C491.508 433.558 492.833 432.309 494.12 430.707C499.542 423.959 503.436 414.694 507.66 407.067Q521.931 381.61 536.487 356.315C543.449 343.962 549.268 329.781 558.749 319.157C581.058 294.16 607.434 300.812 636.744 299.295ZM324.771 629.971C333.396 633.416 340.99 634.772 350.265 634.589Q351.527 634.502 352.786 634.384Q354.046 634.267 355.302 634.119Q356.558 633.97 357.81 633.792Q359.063 633.613 360.31 633.404Q361.558 633.194 362.8 632.955Q364.042 632.715 365.278 632.445Q366.513 632.176 367.742 631.876Q368.971 631.576 370.192 631.247Q371.414 630.917 372.627 630.558Q373.839 630.199 375.043 629.81Q376.247 629.421 377.441 629.003Q378.635 628.586 379.818 628.139Q381.001 627.692 382.174 627.217Q383.346 626.741 384.506 626.237Q385.666 625.733 386.814 625.201Q387.961 624.669 389.096 624.11Q390.23 623.55 391.35 622.963Q392.471 622.375 393.577 621.761Q394.682 621.147 395.773 620.506Q396.863 619.865 397.938 619.197Q399.012 618.53 400.07 617.836Q401.128 617.143 402.169 616.424Q403.209 615.705 404.232 614.961Q405.255 614.217 406.26 613.448Q407.264 612.679 408.25 611.886Q409.235 611.093 410.201 610.276Q411.167 609.459 412.113 608.619Q413.058 607.779 413.983 606.917Q414.908 606.054 415.812 605.169Q416.716 604.284 417.597 603.377Q418.479 602.47 419.339 601.542Q420.198 600.614 421.035 599.665C432.959 586.072 440.47 569.803 449.081 554.1C452.619 547.649 457.013 541.314 459.386 534.308C460.949 529.692 461.351 524.922 461.302 520.074C452.913 519.636 444.196 519.075 435.824 519.952C409.743 522.101 387.916 530.367 370.619 550.696C361.153 561.822 354.704 574.993 347.931 587.825C340.462 601.974 333.044 616.27 324.771 629.971ZM651.51 631.488L653.104 630.596C653.172 630.298 653.309 630.007 653.306 629.701C653.284 627.799 620.464 568.612 617.352 563.683C604.215 542.872 583.788 527.808 559.654 522.491C546.515 519.596 532.159 519.713 518.76 519.996C518.562 525.032 518.921 529.422 520.598 534.21C523.244 541.764 527.999 548.436 531.899 555.378C541.035 571.639 548.841 589.036 561.589 602.921C578.592 621.441 603.365 633.659 628.629 634.572C636.332 634.851 644.213 634.075 651.51 631.488ZM426.668 489.493C437.187 489.549 452.632 488.069 460.777 480.642C459.597 477.015 457.961 473.682 456.173 470.318C450.637 459.904 444.329 449.869 438.506 439.609C432.981 429.876 396.765 363.209 392.747 360.52C391.735 359.842 390.207 359.668 389.025 359.447C379.683 361.195 371.976 369.082 366.816 376.638C356.176 392.217 352.734 412.643 356.373 431.058C360.015 449.487 371.852 466.508 387.425 476.939C399.211 484.833 412.592 488.71 426.668 489.493ZM557.112 489.493C576.789 487.705 595.798 477.409 608.343 462.252C621.285 446.614 626.399 427.273 624.461 407.219C622.967 391.76 615.423 375.715 603.291 365.775C598.741 362.046 594.29 360.479 588.556 359.743C585.996 361.251 584.609 363.082 583.023 365.539C575.741 376.823 569.934 389.379 563.261 401.078L535.183 450.591C530.438 458.998 523.295 469.353 520.565 478.471C520.19 479.722 520.106 480.381 520.81 481.536C523.214 485.479 531.71 487.108 535.942 487.985C542.933 489.434 549.989 489.843 557.112 489.493Z"/>
</svg>
