<?xml version="1.0" encoding="utf-8"?>
<svg xmlns="http://www.w3.org/2000/svg" width="32" height="32" viewBox="0 0 1580 1580">
	<path fill="#5f7fc5" transform="scale(1.6127 1.6127)" d="M636.744 299.295C640.774 299.348 646.114 299.21 649.312 302.104C651.123 303.743 651.567 306.152 651.85 308.472C652.582 314.472 652.145 320.778 652.097 326.816L652.097 353.999L652.13 455.531C652.103 467.903 651.003 485.57 652.59 497.267C654.535 511.604 666.589 528.457 673.65 541.257L715.25 616.926Q723.263 631.401 731.09 645.977C733.633 650.698 736.519 655.437 738.694 660.332C739.883 663.007 740.699 665.846 740.695 668.793C740.69 672.033 739.658 675.327 737.236 677.575C734.397 680.209 730.588 680.858 726.87 681.215C720.098 681.865 712.986 681.419 706.186 681.385L667.659 681.194L606.28 681.01C597.41 681.021 588.528 681.491 579.661 681.29C574.871 681.182 565.662 681.258 561.618 678.405C559.237 676.725 557.416 674.122 555.833 671.707C550.777 663.993 546.664 655.447 542.203 647.367L516.601 601.213C512.672 594.171 508.771 585.121 503.032 579.42C499.41 575.822 494.343 573.925 489.264 573.969C484.915 574.005 480.85 575.526 477.692 578.55C470.401 585.53 463.663 601.296 458.597 610.461Q446.999 631.107 435.833 651.99C431.598 660.089 427.426 670.807 420.827 677.189C418.916 679.038 417.239 680.03 414.609 680.483C404.051 682.298 392.643 680.959 381.955 680.895L317.495 680.676L272.352 680.691C264.461 680.753 256.155 681.909 248.351 680.615C245.25 680.101 242.391 678.721 240.576 676.073C238.147 672.529 239.372 667.469 240.702 663.685C242.761 657.828 246.029 652.311 248.969 646.857L261.214 624.188L300.84 550.578C307.775 537.778 315.539 525.382 321.612 512.128C324.092 506.715 326.01 501.567 326.71 495.636C327.594 488.14 327.332 480.546 327.318 473.011L327.281 442.509L327.299 342.284C327.267 330.332 325.077 316.875 327.55 305.147C328.168 302.219 330.136 301.122 332.522 299.637C340.466 299.246 348.451 299.422 356.403 299.456C372.835 299.528 389.487 298.823 404.728 306.027C411.765 309.354 418.086 315.145 422.815 321.265C429.882 330.414 435.023 341.395 440.581 351.522Q455.885 379.206 471.816 406.535C476.28 414.297 480.159 422.902 485.339 430.193C486.477 431.794 487.486 433.339 489.435 433.928C491.508 433.558 492.833 432.309 494.12 430.707C499.542 423.959 503.436 414.694 507.66 407.067Q521.931 381.61 536.487 356.315C543.449 343.962 549.268 329.781 558.749 319.157C581.058 294.16 607.434 300.812 636.744 299.295Z"/>
</svg> 